<svg xmlns="http://www.w3.org/2000/svg" width="47.578" height="59.473" viewBox="0 0 47.578 59.473"><defs><style>.a{fill:#cad9fc;}.b{fill:#e8edfc;}.c{fill:#a4c2f7;}.d{fill:#7facfa;}.e{fill:#fff;}.f{fill:#428dff;}</style></defs><path class="a" d="M54.626,330.4a9.3,9.3,0,0,1-9.308,9.307l-3.578,1.982H21.915L18.337,339.7a9.31,9.31,0,0,1-.8-18.585l7.969-.694H38.152l7.97.694a9.316,9.316,0,0,1,8.5,9.278Zm0,0" transform="translate(-8.038 -283.205)"/><path class="b" d="M51.653,330.4a9.3,9.3,0,0,1-9.307,9.307l-3.578,1.982H21.916L18.338,339.7a9.31,9.31,0,0,1-.8-18.585l7.969-.694h9.675l7.969.694a9.315,9.315,0,0,1,8.5,9.278Zm0,0" transform="translate(-8.039 -283.205)"/><path class="a" d="M93.936,428.65v3.965l-.342.49a9.3,9.3,0,0,1-3.018.5L87,435.588H67.172l-3.578-1.982a9.292,9.292,0,0,1-3.018-.5l-.342-.49V428.65a1.982,1.982,0,0,1,1.982-1.982H91.953a1.982,1.982,0,0,1,1.982,1.982Zm0,0" transform="translate(-53.295 -377.107)"/><path class="c" d="M159.444,280.761a11.271,11.271,0,0,1-5.948,2.9,6.467,6.467,0,0,1-.991.069,10.948,10.948,0,0,1-6.939-2.973,13.019,13.019,0,0,0,.614-1.437,20.742,20.742,0,0,0,1.11-4.5c.049-.317.089-.6.119-.882l10.18-.02a23.211,23.211,0,0,0,1.239,5.4A13.022,13.022,0,0,0,159.444,280.761Zm0,0" transform="translate(-128.716 -242.104)"/><path class="a" d="M156.47,288.44a11.613,11.613,0,0,1-2.974,2.012,6.471,6.471,0,0,1-.991.069,10.948,10.948,0,0,1-6.939-2.973,13.021,13.021,0,0,0,.614-1.437,20.745,20.745,0,0,0,1.11-4.5l7.325-.01a23.186,23.186,0,0,0,1.239,5.4A13.022,13.022,0,0,0,156.47,288.44Zm0,0" transform="translate(-128.716 -248.891)"/><path class="b" d="M107.037,409.6v7.93a2.974,2.974,0,0,1-2.974,2.973H80.274a2.973,2.973,0,0,1-2.973-2.973V409.6" transform="translate(-68.38 -362.023)"/><path class="c" d="M112.595,27.368a53.346,53.346,0,0,0,.991-7.93c0-2.973-1.982-5.947-4.956-8.921a4.893,4.893,0,0,1-.991,2.973s0-1.982-2.974-3.965a3.067,3.067,0,0,1-.991,1.982,6.865,6.865,0,0,0-3.965-2.973,6.865,6.865,0,0,0-3.965,2.973,3.069,3.069,0,0,1-.991-1.982c-2.973,1.982-2.973,3.965-2.973,3.965a4.893,4.893,0,0,1-.991-2.973c-2.974,2.973-4.956,5.947-4.956,8.921a53.407,53.407,0,0,0,.991,7.93Zm0,0" transform="translate(-75.92 -7.544)"/><path class="d" d="M271.974,34.522a40.378,40.378,0,0,1-1.34,7.93h-2.491a46.358,46.358,0,0,0,1.152-7.93c0-2.517-1.648-5.035-4.259-7.553a4.87,4.87,0,0,0,.241-1.368c4.018,2.973,6.7,5.947,6.7,8.921Zm0,0" transform="translate(-234.307 -22.628)"/><path class="a" d="M117.155,145.76c.684-.545,2.984-2.1,2.984,2.181,0,4.074-2.6,4.847-3.588,5h-18.6c-.991-.149-3.588-.922-3.588-5,0-4.282,2.3-2.726,2.983-2.181Zm0,0" transform="translate(-83.464 -128.185)"/><path class="a" d="M139.7,87.3c0,.377,0,.743-.01,1.1a30.043,30.043,0,0,1-.763,7.136,16.608,16.608,0,0,1-1.09,3.043c-1.408,2.974-3.856,5.947-8.049,5.947a8.806,8.806,0,0,1-1.477-.129h-.02c-3.311-.614-5.342-3.2-6.572-5.818a16.563,16.563,0,0,1-1.08-3.043,30.2,30.2,0,0,1-.754-7.136c-.01-.357-.01-.724-.01-1.1a14,14,0,0,1,1.2-6.274,7.673,7.673,0,0,1,.515-.892,17.819,17.819,0,0,0,6.671,1.546.108.108,0,0,0,.079,0c.466.039.942.049,1.447.049a22.115,22.115,0,0,0,5.739-.7,14.889,14.889,0,0,0,2.458-.892c1.08,1.6,1.715,3.905,1.715,7.166Zm0,0" transform="translate(-105.998 -70.821)"/><path class="b" d="M136.725,94.083c0,.377,0,.743-.01,1.1a30.09,30.09,0,0,1-.763,7.137,16.64,16.64,0,0,1-1.09,3.043c-1.229,2.6-3.262,5.2-6.552,5.818h-.02c-3.311-.614-5.342-3.2-6.572-5.818a16.563,16.563,0,0,1-1.08-3.043,30.2,30.2,0,0,1-.754-7.137c-.01-.357-.01-.724-.01-1.1a14,14,0,0,1,1.2-6.274,22.115,22.115,0,0,0,5.739.7c.505,0,.981-.01,1.447-.049a.108.108,0,0,0,.079,0c.466.039.942.049,1.447.049a22.115,22.115,0,0,0,5.739-.7,14,14,0,0,1,1.2,6.274Zm0,0" transform="translate(-105.997 -77.609)"/><path class="e" d="M15.007,78.512c.1.038.2.066.3.1l.009.012c.089.031.182.053.272.081.106.033.212.066.319.1.157.042.317.078.478.112.1.022.205.047.309.065.137.025.277.041.416.059a2.963,2.963,0,0,0,2.819,2.07h2.974a2.963,2.963,0,0,1-2.819-2.07c-.14-.019-.279-.035-.417-.059-.1-.019-.206-.043-.309-.065-.161-.034-.32-.069-.477-.112-.108-.029-.214-.062-.319-.095s-.183-.051-.273-.081l-.009-.013c-.1-.034-.2-.063-.3-.1a9.312,9.312,0,0,1,2.527-17.971l7.97-.694a20.77,20.77,0,0,0,1.11-4.5c.049-.317.089-.6.119-.882h.024a11.991,11.991,0,0,1-3-4.084,16.589,16.589,0,0,1-1.069-3H25.5c-.985-.148-3.555-.916-3.585-4.926h0a53.406,53.406,0,0,1-.991-7.93,10.617,10.617,0,0,1,2.662-6.341,5.513,5.513,0,0,1-.679-2.58c-2.974,2.973-4.956,5.947-4.956,8.921a53.406,53.406,0,0,0,.991,7.93h0c.031,4.01,2.6,4.778,3.585,4.926h.161a16.555,16.555,0,0,0,1.069,3,11.989,11.989,0,0,0,3,4.084h-.024c-.029.278-.069.565-.119.882a20.744,20.744,0,0,1-1.11,4.5l-7.969.694a9.312,9.312,0,0,0-2.528,17.971Zm0,0" transform="translate(-8.039 -22.628)"/><path class="f" d="M122.337,97.844c-3.861,0-6.961-2.254-8.966-6.517a17.527,17.527,0,0,1-1.144-3.22,30.982,30.982,0,0,1-.784-7.371c-.01-.349-.01-.726-.01-1.111,0-3.323.617-5.848,1.885-7.722a.991.991,0,1,1,1.642,1.111,11.838,11.838,0,0,0-1.545,6.611c0,.368,0,.725.009,1.073a29.189,29.189,0,0,0,.724,6.92,15.536,15.536,0,0,0,1.015,2.862c1.679,3.572,4.092,5.381,7.173,5.381,3.056,0,5.463-1.81,7.153-5.38a15.533,15.533,0,0,0,1.025-2.864,28.843,28.843,0,0,0,.733-6.9c.01-.364.01-.721.01-1.089a11.836,11.836,0,0,0-1.545-6.611.991.991,0,1,1,1.642-1.111c1.269,1.874,1.885,4.4,1.885,7.722,0,.386,0,.762-.01,1.127a30.644,30.644,0,0,1-.794,7.355,17.5,17.5,0,0,1-1.156,3.222c-2.017,4.262-5.11,6.514-8.944,6.514Zm0,0" transform="translate(-98.548 -63.151)"/><path class="f" d="M90.413,146.4a.955.955,0,0,1-.148-.011c-1.04-.156-4.433-1.05-4.433-5.976,0-.74,0-2.99,1.481-3.7.875-.421,1.979-.156,3.111.747A.991.991,0,0,1,89.19,139c-.55-.438-.932-.535-1.02-.51,0,0-.354.308-.354,1.915,0,3.135,1.72,3.861,2.745,4.016a.991.991,0,0,1-.146,1.971Zm0,0" transform="translate(-75.92 -120.654)"/><path class="f" d="M277.8,146.393a.991.991,0,0,1-.146-1.971c1.025-.154,2.745-.881,2.745-4.016,0-1.609-.358-1.916-.362-1.919-.088-.028-.463.075-1.013.513a.991.991,0,1,1-1.235-1.55c1.133-.9,2.238-1.169,3.111-.747,1.481.713,1.481,2.963,1.481,3.7,0,4.926-3.392,5.819-4.432,5.976A.962.962,0,0,1,277.8,146.393Zm0,0" transform="translate(-244.716 -120.652)"/><path class="e" d="M10.081,319.873a8.322,8.322,0,0,0-7.557,7.456c-.027.277-.039.555-.042.834H.5c0-.344.019-.688.052-1.031A10.3,10.3,0,0,1,9.911,317.9Zm0,0" transform="translate(-0.5 -280.972)"/><g transform="translate(0 0)"><path class="f" d="M41.4,320.58a1.044,1.044,0,0,0,1.322.33,8.384,8.384,0,0,1,3.359-1.037l-.171-1.975a10.365,10.365,0,0,0-4.161,1.285.958.958,0,0,0-.348,1.4Zm0,0" transform="translate(-36.496 -280.972)"/><path class="f" d="M.5,384.12H2.482c0-.279.015-.557.042-.834a8.623,8.623,0,0,1,.136-.874,1.048,1.048,0,0,0-.716-1.16.955.955,0,0,0-1.225.754,10.522,10.522,0,0,0-.168,1.084c-.034.343-.049.687-.052,1.031Zm0,0" transform="translate(-0.5 -336.928)"/><path class="f" d="M17.71,351.748a1.018,1.018,0,0,0,.172-.68l-.039-.181a.833.833,0,0,0-.078-.183.686.686,0,0,0-.095-.162,1.537,1.537,0,0,0-.134-.148.9.9,0,0,0-1.11-.1,1.073,1.073,0,0,0-.508,1.078.955.955,0,0,0,.166.359.938.938,0,0,0,.284.26,1.144,1.144,0,0,0,.744.125A1.006,1.006,0,0,0,17.71,351.748Zm0,0" transform="translate(-14.117 -309.474)"/><path class="f" d="M74.716,314.563a.991.991,0,0,1-.085-1.979l7.97-.694a.991.991,0,1,1,.172,1.975l-7.97.694A.811.811,0,0,1,74.716,314.563Zm0,0" transform="translate(-65.221 -275.658)"/><path class="f" d="M9.571,408.939a.883.883,0,0,1-.13-.008A10.307,10.307,0,0,1,.5,398.73a.991.991,0,1,1,1.982,0A8.319,8.319,0,0,0,9.7,406.965a.991.991,0,0,1-.127,1.974Zm0,0" transform="translate(-0.5 -351.538)"/><path class="f" d="M260.709,333.074a.991.991,0,0,1-.127-1.974,8.315,8.315,0,0,0-.386-16.526l-7.968-.694a.991.991,0,0,1,.172-1.975l7.969.694a10.3,10.3,0,0,1,.469,20.467.879.879,0,0,1-.13.008Zm0,0" transform="translate(-222.201 -275.673)"/><path class="f" d="M96.519,429.036H72.73a3.969,3.969,0,0,1-3.965-3.965v-5.947a.991.991,0,1,1,1.982,0v5.947a1.984,1.984,0,0,0,1.982,1.982H96.519a1.984,1.984,0,0,0,1.982-1.982v-5.947a.991.991,0,1,1,1.982,0v5.947A3.969,3.969,0,0,1,96.519,429.036Zm0,0" transform="translate(-60.836 -369.563)"/><path class="f" d="M144.964,277.061a11.88,11.88,0,0,1-7.639-3.264.991.991,0,0,1-.182-1.152,12.06,12.06,0,0,0,.567-1.329,21.577,21.577,0,0,0,1.173-5.148.991.991,0,0,1,1.971.216,23.543,23.543,0,0,1-1.288,5.626c-.111.3-.219.575-.328.829a8.444,8.444,0,0,0,11.452,0c-.111-.257-.22-.534-.333-.842a23.83,23.83,0,0,1-1.293-5.629.991.991,0,1,1,1.969-.229,21.9,21.9,0,0,0,1.182,5.167,11.942,11.942,0,0,0,.57,1.336.991.991,0,0,1-.182,1.152,11.881,11.881,0,0,1-7.639,3.264Zm0,0" transform="translate(-121.175 -234.439)"/><path class="f" d="M105.055,18.834a.991.991,0,0,1-.941-1.3,20.775,20.775,0,0,0,.941-5.635c0-2.024-1.094-4.261-3.332-6.8a4.056,4.056,0,0,1-.923,1.557.991.991,0,0,1-1.692-.7,3.885,3.885,0,0,0-1.478-2.326,4.714,4.714,0,0,1-.795,1.045.991.991,0,0,1-1.587-.258,5.8,5.8,0,0,0-3.078-2.365,5.789,5.789,0,0,0-3.083,2.374,1,1,0,0,1-1.583.249,4.728,4.728,0,0,1-.795-1.045A3.853,3.853,0,0,0,85.23,5.974a1.011,1.011,0,0,1-.635.887.986.986,0,0,1-1.057-.211,4.045,4.045,0,0,1-.923-1.557c-2.239,2.543-3.332,4.78-3.332,6.8a20.791,20.791,0,0,0,.94,5.635.991.991,0,0,1-1.881.626A22.452,22.452,0,0,1,77.3,11.9c0-2.985,1.667-6.043,5.247-9.622a.991.991,0,0,1,1.692.7,3.987,3.987,0,0,0,.026.4,9.287,9.287,0,0,1,2.4-2.218.991.991,0,0,1,1.541.824,1.328,1.328,0,0,0,.061.278A8.746,8.746,0,0,1,91.855.052a1,1,0,0,1,.627,0A8.754,8.754,0,0,1,96.071,2.26a1.3,1.3,0,0,0,.063-.3,1.011,1.011,0,0,1,.545-.849.987.987,0,0,1,1,.048,9.287,9.287,0,0,1,2.4,2.218c.018-.168.025-.311.026-.406a.992.992,0,0,1,1.692-.7c3.579,3.579,5.246,6.636,5.246,9.622a22.435,22.435,0,0,1-1.042,6.261.991.991,0,0,1-.94.677Zm0,0" transform="translate(-68.379 -0.001)"/><path class="f" d="M135.432,75.192A19.916,19.916,0,0,1,126.8,73.5a.991.991,0,0,1,.863-1.785,20.9,20.9,0,0,0,15.533,0,.991.991,0,0,1,.862,1.785,19.912,19.912,0,0,1-8.628,1.694Zm0,0" transform="translate(-111.643 -63.298)"/></g></svg>