<svg xmlns="http://www.w3.org/2000/svg" width="60.376" height="61.442" viewBox="0 0 60.376 61.442"><defs><style>.a{fill:#d0ddf0;}.b{fill:#7fa8f6;}.c{fill:#dfe3ee;}.d{fill:#fff;}.e{fill:#428dff;}</style></defs><path class="a" d="M114.488,172.11s-6.6,5.976-10.693,4.953,0-4.093,0-4.093-5.116-2.046-1.023-5.116v.164c-.031-.031-.072-.051-.1-.082-3.909-3.019,1.125-5.035,1.125-5.035s-4.093-3.07,0-4.093c3.121-.778,10,3.459,11.154,4.543Zm0,0" transform="translate(-88.905 -139.362)"/><path class="b" d="M243.132,386.949c.44,8.3-5.976,13.283-11.257,13.242a15.375,15.375,0,0,1-1.668-.1,11.871,11.871,0,0,0,8.923-7.327,9.739,9.739,0,0,0,1.627-1.494c.8-.931,2.374-2.927,2.374-4.319Zm0,0" transform="translate(-202.199 -339.772)"/><path class="b" d="M235.258,22.2c0,2.579-1.248,4.687-2.169,4.625a1.659,1.659,0,0,1-.819-.368,8.14,8.14,0,0,0-1.033-.594,7.145,7.145,0,0,0,.952-3.663c-1.023-1.023-6.14-1.607-8.187-3.653a14.756,14.756,0,0,1-1.77-2.978c-.88-1.464-2.323-5.116-8.463-5.116-.225,0-.45-.932-.686-1.535a10.659,10.659,0,0,1,2.733-.511c.348-.02.685,2.047,1.023,2.047,6.14,0,7.583,3.653,8.463,5.116a14.776,14.776,0,0,0,1.77,2.978c2.047,2.046,7.163,2.63,8.187,3.653Zm0,0" transform="translate(-187.162 -7.38)"/><path class="c" d="M146.25,24.37a6.591,6.591,0,0,0-.3,2.722,4.769,4.769,0,0,0,1.75,3.418c1.914,1.484,4.615.982,6.856,1.648a11.263,11.263,0,0,1,3.5,19.852c-1.863,1.382-5.383,1.617-8.729,2.118-4.216.644-8.166,1.709-8.2,6.058-.02,3.367,1.637,5.731,5.106,6.14a1.014,1.014,0,0,0,.174.01,13.021,13.021,0,0,0,9.138-2.282,11.871,11.871,0,0,1-8.923,7.327c-5.843-.675-11.584-4.646-11.6-11.062a9.849,9.849,0,0,1,2.467-6.078c1.177-1.525,2.65-3.008,3.919-4.615.41-.532.809-1.074,1.167-1.637a11.217,11.217,0,0,0,1.136-2.272,8.368,8.368,0,0,0,.44-1.893,8.165,8.165,0,0,0,.051-.87,10.31,10.31,0,0,0-.245-2.241,12.562,12.562,0,0,0-.471-1.719,19.447,19.447,0,0,0-.993-2.4c-.287-.6-.6-1.2-.921-1.781-.42-.778-.849-1.535-1.269-2.272-.072-.133-.143-.256-.215-.379-.256-.461-.511-.891-.737-1.31a14.622,14.622,0,0,1-2.313-8.524,10.448,10.448,0,0,1,7.5-9.722c.236.6.461,1.535.686,1.535,6.14,0,7.583,3.653,8.463,5.116a14.756,14.756,0,0,0,1.77,2.978c2.047,2.046,7.163,2.63,8.187,3.653a7.145,7.145,0,0,1-.952,3.663c-4.247-2.128-9.5-.665-13.9-2.538-.4-.174-2.794-1.883-2.548-2.64Zm0,0" transform="translate(-118.62 -11.065)"/><path class="c" d="M16.034,112.71a3.582,3.582,0,1,1-3.581-3.581A3.582,3.582,0,0,1,16.034,112.71Zm0,0" transform="translate(-7.848 -95.824)"/><path class="c" d="M63.324,18.847A2.047,2.047,0,1,1,61.277,16.8,2.047,2.047,0,0,1,63.324,18.847Zm0,0" transform="translate(-52.067 -14.752)"/><path class="c" d="M410.526,406.48a3.582,3.582,0,1,1-3.582-3.582A3.581,3.581,0,0,1,410.526,406.48Zm0,0" transform="translate(-354.244 -353.777)"/><path class="c" d="M457.816,337.8a2.047,2.047,0,1,1-2.046-2.047A2.047,2.047,0,0,1,457.816,337.8Zm0,0" transform="translate(-398.463 -294.816)"/><path class="b" d="M265.657,180.7a11.346,11.346,0,0,1-4.564,9.056c-1.863,1.382-5.382,1.617-8.729,2.118a7.515,7.515,0,0,0,.7-.522c2.118-1.811,8.043-8.33,2.179-21.213-.1-.225-.2-.44-.307-.665a14.167,14.167,0,0,1,2.66.43,11.24,11.24,0,0,1,8.064,10.8Zm0,0" transform="translate(-221.654 -148.815)"/><path class="a" d="M267.6,185.495a11.346,11.346,0,0,1-4.564,9.056,11.726,11.726,0,0,1-4.963,1.6c2.118-1.811,8.043-8.33,2.179-21.213a11.25,11.25,0,0,1,7.348,10.561Zm0,0" transform="translate(-226.668 -153.606)"/><path class="d" d="M264.769,60.813a2.047,2.047,0,1,1-2.047-2.047A2.047,2.047,0,0,1,264.769,60.813Zm0,0" transform="translate(-228.953 -51.601)"/><path class="d" d="M263.384,60.455a1.023,1.023,0,0,1-1.955.42,2.071,2.071,0,0,1,1.351-1.351,1.023,1.023,0,0,1,.6.931Zm0,0" transform="translate(-229.615 -52.266)"/><path class="d" d="M106.4,159.04a5.6,5.6,0,0,0-2.583-.155c-4.093,1.023,0,4.093,0,4.093s-5.035,2.016-1.126,5.035c-3.883,3.021,1.126,5.031,1.126,5.031s-4.093,3.07,0,4.093a5.414,5.414,0,0,0,2.673-.126c-3.377-1.125.4-3.967.4-3.967s-5.007-2.01-1.126-5.031c-3.909-3.019,1.126-5.035,1.126-5.035s-3.715-2.795-.487-3.939Zm0,0" transform="translate(-88.92 -139.441)"/><path class="d" d="M147.958,71.084a8.881,8.881,0,0,1-1.33.3c-5.843-.675-11.584-4.646-11.6-11.062a9.849,9.849,0,0,1,2.466-6.078c1.177-1.525,2.65-3.008,3.919-4.615.41-.532.809-1.074,1.167-1.637a11.217,11.217,0,0,0,1.136-2.272,8.367,8.367,0,0,0,.44-1.893,8.149,8.149,0,0,0,.051-.87,10.311,10.311,0,0,0-.245-2.241,12.56,12.56,0,0,0-.471-1.719,19.45,19.45,0,0,0-.992-2.4c-.287-.6-.6-1.2-.921-1.781-.42-.778-.849-1.535-1.269-2.272-.072-.133-.143-.256-.215-.379-.256-.461-.512-.891-.737-1.31a14.622,14.622,0,0,1-2.313-8.524,10.448,10.448,0,0,1,7.5-9.722c.154.389.3.921.44,1.238a10.009,10.009,0,0,0-4.9,8.483,14.622,14.622,0,0,0,2.313,8.524c.225.42.481.85.737,1.31.072.122.143.245.215.379.42.737.85,1.494,1.269,2.272.317.583.634,1.177.921,1.781a19.523,19.523,0,0,1,.993,2.4A12.553,12.553,0,0,1,147,40.712a10.282,10.282,0,0,1,.246,2.241,8.165,8.165,0,0,1-.051.87,8.394,8.394,0,0,1-.44,1.893,11.216,11.216,0,0,1-1.136,2.272c-.358.563-.757,1.105-1.167,1.637-1.269,1.607-2.743,3.09-3.919,4.615a9.848,9.848,0,0,0-2.466,6.078c.02,5.792,4.7,9.589,9.9,10.766Zm0,0" transform="translate(-118.619 -11.065)"/><path class="d" d="M140.955,416.19a16.973,16.973,0,0,1-6.862-1.54,13.433,13.433,0,0,1-5.516-4.492,11.1,11.1,0,0,1-1.905-6.15h2.047a9.03,9.03,0,0,0,1.547,5c2.306,3.3,6.6,5.081,10.7,5.138Zm0,0" transform="translate(-111.286 -354.752)"/><g transform="translate(0 0)"><path class="e" d="M35.663,69.02a1.023,1.023,0,1,0-1.425-.249A1.023,1.023,0,0,0,35.663,69.02Zm0,0" transform="translate(-29.958 -58.971)"/><path class="e" d="M430.155,312.429a1.023,1.023,0,1,0-1.425-.249A1.023,1.023,0,0,0,430.155,312.429Zm0,0" transform="translate(-376.354 -272.705)"/><path class="e" d="M271.113,68.184a1.023,1.023,0,1,1-1.023-1.023A1.023,1.023,0,0,1,271.113,68.184Zm0,0" transform="translate(-236.32 -58.972)"/><path class="e" d="M.477,105.339a4.605,4.605,0,1,0,4.605-4.6A4.605,4.605,0,0,0,.477,105.339Zm4.605-2.558a2.558,2.558,0,1,1-2.558,2.558A2.559,2.559,0,0,1,5.082,102.781Zm0,0" transform="translate(-0.477 -88.453)"/><path class="e" d="M53.91,8.406a3.07,3.07,0,1,0,3.07,3.07A3.07,3.07,0,0,0,53.91,8.406Zm0,4.093a1.024,1.024,0,1,1,.723-.3A1.023,1.023,0,0,1,53.91,12.5Zm0,0" transform="translate(-44.7 -7.381)"/><path class="e" d="M394.969,399.109a4.605,4.605,0,1,0,4.6-4.605A4.6,4.6,0,0,0,394.969,399.109Zm4.6-2.558a2.558,2.558,0,1,1-2.558,2.558A2.558,2.558,0,0,1,399.574,396.551Zm0,0" transform="translate(-346.873 -346.406)"/><path class="e" d="M448.4,327.359a3.07,3.07,0,1,0,3.07,3.07A3.07,3.07,0,0,0,448.4,327.359Zm0,4.093a1.023,1.023,0,1,1,1.023-1.023A1.023,1.023,0,0,1,448.4,331.452Zm0,0" transform="translate(-391.096 -287.448)"/><path class="e" d="M172.244,469.543a1.132,1.132,0,0,0-.361.161,1.062,1.062,0,0,0-.29.273,1.011,1.011,0,0,0-.16.771,1.041,1.041,0,0,0,.491.667,1.157,1.157,0,0,0,.819.12l.183-.072a1.217,1.217,0,0,0,.308-.256,1.573,1.573,0,0,0,.111-.174,1.179,1.179,0,0,0,.078-.781,1.047,1.047,0,0,0-.173-.345A1.023,1.023,0,0,0,172.244,469.543Zm0,0" transform="translate(-150.574 -412.279)"/><path class="e" d="M96.256,18.452c-1.49.372-2.349,1.073-2.553,2.082a3.411,3.411,0,0,0,1.065,2.79,4.014,4.014,0,0,0-1.874,2.6,3.215,3.215,0,0,0,.972,2.65,3.226,3.226,0,0,0-.971,2.629,4.007,4.007,0,0,0,1.875,2.617A3.41,3.41,0,0,0,93.7,36.61c.2,1.01,1.063,1.711,2.553,2.084a5.174,5.174,0,0,0,1.252.146c2.558,0,5.465-1.637,7.563-3.112a26.043,26.043,0,0,1-3.353,4.4c-.7.788-1.417,1.6-2.047,2.423A10.949,10.949,0,0,0,97,49.26a11.1,11.1,0,0,0,1.905,6.15c.2.314.455.593.682.89a.992.992,0,0,0,1.479.092,1.07,1.07,0,0,0,.09-1.407c-.185-.245-.4-.475-.563-.732a9.027,9.027,0,0,1-1.547-5c0-1.775.668-3.408,2.251-5.455.591-.765,1.257-1.52,1.963-2.318.657-.743,1.337-1.516,1.978-2.33l2.422,1.615a1.023,1.023,0,1,0,1.136-1.7l-2.368-1.578a12.485,12.485,0,0,0,1.271-2.568l4.421.884a.976.976,0,0,0,.19.016,1.023,1.023,0,0,0,.2-2.026l-4.327-.866a.969.969,0,0,0,0-.323q.029-.351.03-.716a11.486,11.486,0,0,0-.143-1.714.909.909,0,0,0,.082-.8l4.535-1.813a1.024,1.024,0,1,0-.761-1.9L107.4,27.47a22.812,22.812,0,0,0-.993-2.394l3.3-1.642a1.024,1.024,0,0,0-.915-1.832l-3.319,1.66c-.323-.593-.65-1.178-.97-1.74l-.307-.542,2.55-1.7a1.023,1.023,0,1,0-1.136-1.7l-2.424,1.616a13.554,13.554,0,0,1-2.126-7.937c0-5.014,4.371-8.663,8.661-9.162l.1.283c.283.843.574,1.716,1.476,1.716,4.99,0,6.447,2.6,7.313,4.15.1.172.185.33.269.469.177.3.336.621.5.948a8.19,8.19,0,0,0,1.433,2.231c1.378,1.376,3.8,2.125,5.737,2.726a20.85,20.85,0,0,1,2.129.737,4.912,4.912,0,0,1-1.121,3.036c-.086-.046-.2-.126-.257-.161-2.676-1.817-5.736-1.986-8.7-2.149a18.738,18.738,0,0,1-6.382-1.071,7.674,7.674,0,0,1-1.944-1.653,1.023,1.023,0,0,0-1.994-.379c-.749,2.252-.5,5.482,1.8,7.266a8.1,8.1,0,0,0,4.316,1.395,1,1,0,0,0,.08.3c2.833,5.665,3.582,10.524,2.228,14.44A10.5,10.5,0,0,1,112,42.08c-3.188.484-8.86,1.433-8.9,7.033-.028,4.1,2.162,6.713,6.008,7.163a13.515,13.515,0,0,0,11.678-3.941,11.238,11.238,0,0,1-2.377,3.787,10.068,10.068,0,0,1-7.061,3.268h-.056a15.371,15.371,0,0,1-3.778-.537,1.07,1.07,0,0,0-1.249.689.991.991,0,0,0,.708,1.285,17.387,17.387,0,0,0,4.3.614h.07a12.143,12.143,0,0,0,8.547-3.906,13.87,13.87,0,0,0,3.673-10.515v-.006a1.025,1.025,0,0,0-2.047.12c.038.7-.819,2.175-2.128,3.684a11.441,11.441,0,0,1-10.049,3.419c-3.495-.41-4.211-3-4.2-5.117.022-3.3,2.7-4.349,7.326-5.049.586-.089,1.178-.169,1.766-.249,2.917-.4,5.673-.772,7.421-2.067a12.285,12.285,0,0,0-3.824-21.649,14.9,14.9,0,0,0-2.789-.451,7.091,7.091,0,0,1-3.72-1.023,3.8,3.8,0,0,1-1.371-2.72,11.393,11.393,0,0,0,1.433.966,20.54,20.54,0,0,0,7.093,1.243c2.8.153,5.451.3,7.656,1.8a2.716,2.716,0,0,0,1.331.541,1.968,1.968,0,0,0,1.5-.6,7.265,7.265,0,0,0,1.761-5.034,1.023,1.023,0,0,0-.3-.723,8.558,8.558,0,0,0-3.291-1.433c-1.726-.534-3.875-1.2-4.9-2.22A6.463,6.463,0,0,1,121.2,8.759c-.187-.38-.372-.754-.579-1.1-.074-.124-.151-.263-.236-.416-.915-1.637-2.787-4.977-8.524-5.187-.04-.114-.08-.233-.11-.326C111.464.859,111.17-.044,110.216,0c-5.389.257-11.208,4.634-11.208,11.257a15.164,15.164,0,0,0,1.652,7.573,7.077,7.077,0,0,0-4.4-.379ZM121.111,24.2a10.233,10.233,0,0,1-.666,15.919,11,11,0,0,1-4.479,1.395,12.582,12.582,0,0,0,2.647-4.406c1.485-4.239.832-9.336-1.887-15.145.176.037.362.059.53.108a10.3,10.3,0,0,1,3.855,2.129ZM96.756,36.707c-.819-.2-1.033-.451-1.043-.5-.062-.307.649-1.206,1.41-1.782a1.023,1.023,0,0,0-.235-1.767c-.574-.229-1.864-.981-1.962-1.722-.058-.441.361-.931.772-1.3a1,1,0,0,0,.511-.264,1.1,1.1,0,0,0-.524-1.875c-.4-.356-.826-.847-.765-1.289.091-.666,1.228-1.42,1.964-1.72a1.024,1.024,0,0,0,.233-1.768c-.746-.56-1.47-1.474-1.408-1.78.01-.05.228-.3,1.042-.5,2.558-.631,4.973,1.211,6,2.149a41.192,41.192,0,0,1,2.421,4.761L100.543,24.7a1.024,1.024,0,0,0-1.015,1.777l5.054,2.887-4.828,1.381a1.023,1.023,0,0,0,.277,2.006.987.987,0,0,0,.281-.04l5.807-1.659c.025.279.054.559.054.84,0,.146-.028.284-.037.429-2,1.714-6.646,5.079-9.381,4.389Zm0,0" transform="translate(-81.611 0)"/></g></svg>