<svg xmlns="http://www.w3.org/2000/svg" width="51.158" height="54.279" viewBox="0 0 51.158 54.279"><defs><style>.a{fill:#7fa8f6;}.b{fill:#d0ddf0;}.c{fill:#9a9a9a;}.d{fill:#fff;}.e{fill:#428dff;}</style></defs><path class="a" d="M305.174,428.488c1.212,1.294,2.714,2.524,4.008,2.524,2.714,0,3.618,4.523-5.428,3.618a30.436,30.436,0,0,1-5.943-1.049H297.8" transform="translate(-266.234 -383.065)"/><path class="a" d="M228.447,12.655c-.091.271-.2.588-.326.959a7.049,7.049,0,0,1-1.257,2.253,6.163,6.163,0,0,1-2.017,1.592,8.137,8.137,0,0,1-2.976.606,7.145,7.145,0,0,0-2.949.642c-3.347,1.755-4.026,5.853-2.877,9.146,2.307,6.558,4.8,13.017,3.492,20.145a12.49,12.49,0,0,1-7.49,9.544,18.479,18.479,0,0,1-5.907,1.248c-2.026.145-4.08.1-6.061.145l-.47-.027c1.14-.018,2.289-.036,3.428-.118a18.479,18.479,0,0,0,5.907-1.248A12.491,12.491,0,0,0,216.434,48c1.312-7.128-1.185-13.587-3.492-20.145-1.149-3.293-.47-7.391,2.877-9.146a7.145,7.145,0,0,1,2.949-.642,8.137,8.137,0,0,0,2.976-.606,6.163,6.163,0,0,0,2.017-1.592,7.049,7.049,0,0,0,1.257-2.253c.136-.371.244-.687.326-.959a.892.892,0,0,0-.6-1.14c-1.945-.57-6.6-1.918-8.548-2.334-.669-.145-1.3-.262-1.891-.344a13.151,13.151,0,0,1,4.994.344c1.945.416,6.6,1.764,8.539,2.334a.9.9,0,0,1,.606,1.14Zm0,0" transform="translate(-178.451 -7.812)"/><path class="b" d="M54.518,13.489c-.082.271-.19.588-.326.959A7.049,7.049,0,0,1,52.935,16.7a6.163,6.163,0,0,1-2.017,1.592,8.137,8.137,0,0,1-2.976.606,7.145,7.145,0,0,0-2.949.642c-3.347,1.755-4.026,5.853-2.877,9.146,2.306,6.558,4.8,13.017,3.492,20.145a12.491,12.491,0,0,1-7.49,9.544,18.479,18.479,0,0,1-5.907,1.248c-1.14.081-2.289.1-3.428.118l-9.7-.66c-3.673-.751-7.273-2.361-8.919-5.925-2.307-4.984-1.737-11.344-.95-16.608.57-3.808,1.556-10.086,3.808-13.27-1.311-1.809-4.016-6.585-.344-11.425a12.647,12.647,0,0,1,.877-1.022.91.91,0,0,1,1.248-.027,8.808,8.808,0,0,1,2.885,7.454,11.879,11.879,0,0,1-.5,2.361c-.009.036-.027.072-.036.108a.807.807,0,0,1,.091-.082,10.434,10.434,0,0,1,5.346-2.922,8.874,8.874,0,0,1,5.563.814.905.905,0,0,1,.434,1.176A9.221,9.221,0,0,1,18.533,24.95q-.353-.041-.706-.108c-.036.063-.063.126-.1.19a19.389,19.389,0,0,0-1.628,10,7.056,7.056,0,0,0,5.626,6.007,7.972,7.972,0,0,0,2.47.09,17.881,17.881,0,0,0,4.451-1.23c.4-.163.8-.317,1.185-.48l.687-.488c.172-.244.344-.489.516-.742.507-.76,1.013-1.556,1.5-2.406,1.809-3.166,3.13-8.051,4-12.149S37.81,16.23,37.81,16.23a12.326,12.326,0,0,1,1.538-3.79,6.135,6.135,0,0,1,3.139-2.515,5.693,5.693,0,0,1,1-.253c.588.082,1.222.2,1.891.344,1.945.416,6.6,1.764,8.548,2.334a.892.892,0,0,1,.6,1.14Zm0,0" transform="translate(-7.624 -8.646)"/><path class="c" d="M96.137,152.886c-.271.036-.534.063-.8.081.036-.063.063-.127.1-.19Q95.784,152.845,96.137,152.886Zm0,0" transform="translate(-85.228 -136.582)"/><path class="b" d="M117.225,409.629a.452.452,0,0,1,.429.6c-.757,2.147-3.869,9.353-11.567,9.353-8.914,0-1.139-4.392,1.687-9.712a.44.44,0,0,1,.391-.238Zm0,0" transform="translate(-91.128 -366.206)"/><g transform="translate(0 1.921)"><path class="d" d="M349.83,27.438a1.809,1.809,0,1,1-1.809-1.809A1.809,1.809,0,0,1,349.83,27.438Zm0,0" transform="translate(-309.512 -24.834)"/><path class="d" d="M348.708,27.222a.9.9,0,0,1-1.728.371,1.831,1.831,0,0,1,1.194-1.194A.9.9,0,0,1,348.708,27.222Zm0,0" transform="translate(-310.2 -25.522)"/><path class="d" d="M19.9,65.961c-3.671-.751-5.374-1.685-7.02-5.247-2.307-4.984-1.737-11.344-.95-16.608.57-3.808,1.556-10.086,3.808-13.27-1.312-1.809-4.017-6.585-.344-11.425.062-.082.131-.161.2-.242a9.255,9.255,0,0,0-.784-.807.91.91,0,0,0-1.248.027,12.646,12.646,0,0,0-.877,1.022c-3.673,4.839-.968,9.616.344,11.425-2.252,3.184-3.238,9.462-3.808,13.27-.787,5.265-1.357,11.624.95,16.608,1.646,3.562,5.247,5.173,8.915,5.924-1.244,1.809-.255.884.819-.677Zm0,0" transform="translate(-7.624 -18.127)"/><path class="d" d="M314.477,475.884c-.255-.018-.518-.04-.791-.067a30.437,30.437,0,0,1-5.943-1.049h-.009l.3-.209a18.122,18.122,0,0,1-2.16.447,36.213,36.213,0,0,0,5.1.814A19.028,19.028,0,0,0,314.477,475.884Zm0,0" transform="translate(-273.452 -426.174)"/><path class="d" d="M1.735,279.024C0,275.192-.141,271,.121,267.044c.125-1.732.341-3.447.594-5.146l1.789.272c-.249,1.671-.459,3.339-.579,5.006-.26,3.808-.082,7.726,1.447,11.092Zm0,0" transform="translate(-0.018 -236.057)"/></g><path class="e" d="M356.556,35.068a.9.9,0,1,1-.9-.9A.9.9,0,0,1,356.556,35.068Zm0,0" transform="translate(-317.143 -30.543)"/><path class="e" d="M41.3,11.695a6.785,6.785,0,0,1,2.649-.542,8.562,8.562,0,0,0,3.256-.693,7.059,7.059,0,0,0,2.315-1.82,8.092,8.092,0,0,0,1.415-2.533c.509-1.453.58-1.738.6-1.832a1.009,1.009,0,0,0-.55-1.162.9.9,0,0,0-.316-.052l-2.034-.6C45.861,1.633,43.463.918,41.449.483,38.554-.142,36.609-.159,34.96.431A7.085,7.085,0,0,0,31.37,3.3a13.016,13.016,0,0,0-1.653,4.071.852.852,0,0,0-.02.107c0,.033-.422,3.32-1.271,7.327-1.113,5.273-2.461,9.385-3.893,11.89A35.393,35.393,0,0,1,22.441,29.9a.928.928,0,0,0-.168.033,20.7,20.7,0,0,1-5.391,1.65,6.221,6.221,0,0,1-7.11-5.347,18.535,18.535,0,0,1,1.374-9.046,12.788,12.788,0,0,0,1.706.132,10.108,10.108,0,0,0,9.692-6.659.921.921,0,0,0,.064-.335c0-.375,0-.729-1.795-1.494a9.687,9.687,0,0,0-9.45.933A9.87,9.87,0,0,0,7.414.871.9.9,0,0,0,6.3.961C.412,6.437,3.206,12.327,4.722,14.65,2.546,18.2,1.617,24.37,1.1,27.767c-.253,1.7-.469,3.414-.595,5.146l-.054.923a.905.905,0,0,0,.87.949.917.917,0,0,0,.938-.859l.053-.884c.12-1.666.33-3.334.579-5.005.514-3.427,1.466-9.8,3.649-12.879.006-.009.007-.02.014-.029a.855.855,0,0,0,.079-.181A.891.891,0,0,0,6.69,14.8a.939.939,0,0,0,0-.174.9.9,0,0,0-.006-.17,2.591,2.591,0,0,0-.137-.324.239.239,0,0,0-.013-.03c-1.359-1.882-3.952-6.644.45-11.271A8.07,8.07,0,0,1,9.11,11.713c-.011.031-.039.115-.047.147a.9.9,0,0,0,1.513.865.976.976,0,0,0,.08-.07c4.3-4.128,8.367-2.729,9.891-1.955-1.809,3.72-5.405,5.437-9.77,4.613h-.043a.832.832,0,0,0-.193,0,.538.538,0,0,0-.314.082.96.96,0,0,0-.157.083.99.99,0,0,0-.111.113.843.843,0,0,0-.122.149c-.007.012-.02.02-.027.033A20.21,20.21,0,0,0,7.989,26.548a8,8,0,0,0,8.041,6.9,9.317,9.317,0,0,0,1.053-.06,15.438,15.438,0,0,0,3.166-.734c-.433.487-.874.967-1.333,1.427a.9.9,0,1,0,1.275,1.279A36.783,36.783,0,0,0,26.1,27.594c1.547-2.708,2.926-6.884,4.1-12.414.8-3.8,1.229-6.965,1.289-7.418a11.217,11.217,0,0,1,1.4-3.466,5.245,5.245,0,0,1,2.685-2.163c1.292-.461,2.985-.425,5.5.118,1.943.42,4.31,1.124,7.05,1.94l1.415.419c-.077.229-.181.521-.309.9a6.266,6.266,0,0,1-1.1,1.968A5.236,5.236,0,0,1,46.4,8.832a7.234,7.234,0,0,1-2.648.518,8.155,8.155,0,0,0-3.306.745c-3.822,2.012-4.554,6.677-3.3,10.244l.374,1.061c2.2,6.232,4.276,12.122,3.081,18.626A11.636,11.636,0,0,1,33.65,48.9a17.52,17.52,0,0,1-5.614,1.182c-1.229.091-2.489.1-3.721.111A18.287,18.287,0,0,0,28,43.664a.9.9,0,1,0-1.745-.477c-.024.092-2.624,9.283-10.885,9.283-2.889,0-3.241-.485-3.249-.493-.041-.2.181-.593.513-1.061l.007-.01c.472-.662,1.166-1.469,1.706-2.094a25.415,25.415,0,0,0,3.641-4.983.9.9,0,1,0-1.618-.809,24.071,24.071,0,0,1-3.391,4.613c-.55.633-1.053,1.226-1.48,1.786-3.963-.913-6.506-2.639-7.729-5.285a15.9,15.9,0,0,1-1.055-3.245.932.932,0,0,0-1.056-.7.885.885,0,0,0-.713,1.079,17.749,17.749,0,0,0,1.176,3.618c1.388,3,4.215,5.059,8.379,6.142a2.072,2.072,0,0,0-.034,1.689c.5,1.091,1.969,1.557,4.9,1.557A11.417,11.417,0,0,0,22.3,52.024q.814-.016,1.648-.021c1.378-.01,2.8-.022,4.214-.12a23.659,23.659,0,0,0,3.56-.5l.008,0a31.942,31.942,0,0,0,6.1,1.085c.814.081,1.571.121,2.278.121,2.833,0,4.794-.645,5.619-1.876a2.185,2.185,0,0,0,.133-2.277,2.8,2.8,0,0,0-2.512-1.4A5.082,5.082,0,0,1,40.5,45.308a14.375,14.375,0,0,0,1.886-4.957c1.283-6.982-.972-13.373-3.155-19.555l-.373-1.058c-1-2.835-.477-6.509,2.438-8.044Zm2.058,37.157a1.022,1.022,0,0,1,.915.434.372.372,0,0,1-.039.419c-.458.684-2.36,1.349-6.213.962-1.146-.116-2.164-.251-3.062-.4a13.052,13.052,0,0,0,4.478-3.478c1.45,1.367,2.767,2.064,3.921,2.064Zm0,0" transform="translate(-0.408 -0.001)"/><path class="e" d="M1.22,346.918a1.194,1.194,0,0,0,.181,0,.985.985,0,0,0,.622-.313.915.915,0,0,0-.07-1.253.973.973,0,0,0-.3-.181.9.9,0,0,0-.347-.063.922.922,0,0,0-.633.284.953.953,0,0,0-.235.67.987.987,0,0,0,.309.641l.143.1a.671.671,0,0,0,.168.069.553.553,0,0,0,.166.045Zm0,0" transform="translate(-0.389 -308.525)"/><path class="e" d="M295.636,321.7a.9.9,0,0,0,.464-.129c4.9-2.946,4.962-13.013,4.962-13.44a.9.9,0,0,0-1.809,0c0,2.623-.733,9.878-4.084,11.889a.9.9,0,0,0,.467,1.68Zm0,0" transform="translate(-263.489 -274.663)"/><path class="e" d="M37.3,336.952a.9.9,0,1,0,.256-1.791c-.055-.009-5.555-.9-5.555-9.96a.9.9,0,0,0-1.809,0c0,10.612,7.038,11.741,7.108,11.751Zm0,0" transform="translate(-26.996 -289.919)"/></svg>