<svg xmlns="http://www.w3.org/2000/svg" width="58.036" height="62.181" viewBox="0 0 58.036 62.181"><defs><style>.a{fill:#d0ddf0;}.b{fill:#a0bef3;}.c{fill:#7fa8f6;}.d{fill:#dfe3ee;}.e{fill:#fff;}.f{fill:#428dff;}</style></defs><path class="a" d="M66.885,358.41s-.848,4.241.525,6.584a.518.518,0,0,0,.889-.012,9.47,9.47,0,0,1,2.67-3.109" transform="translate(-58.594 -314.881)"/><path class="a" d="M37.514,15.426s-2.943-4.9-20.282-6.125a.519.519,0,0,0-.4.889,30.136,30.136,0,0,1,8.241,14.564" transform="translate(-14.714 -8.17)"/><path class="b" d="M302.359,231.149c2.27.756,3.781,3.241,4.431,4.526a.518.518,0,0,0,.933-.019c1.263-2.487.338-7.162.338-7.162l-4.081-1.814Zm0,0" transform="translate(-265.698 -199.15)"/><path class="c" d="M278.709,60.218c-.042.342-.083.684-.135,1.026a19.344,19.344,0,0,1-.415,2.011,17.676,17.676,0,0,1-.643,1.938,12.817,12.817,0,0,1-4.58,5.959,19.862,19.862,0,0,1-9.794,2.954,30.455,30.455,0,0,1-3.513.042l-.228-.01q.327,0,.653-.031a19.861,19.861,0,0,0,9.794-2.954,12.822,12.822,0,0,0,4.581-5.959,17.688,17.688,0,0,0,.642-1.938,19.226,19.226,0,0,0,.415-2.011c.052-.342.093-.684.135-1.026a.528.528,0,0,0-.083-.352c-.829-1.2-6.664-8.737-23.225-9.214,18.924-.456,25.422,7.928,26.313,9.214a.528.528,0,0,1,.083.352Zm0,0" transform="translate(-221.73 -44.484)"/><path class="d" d="M88.734,60.347c-.042.342-.083.684-.135,1.026a19.225,19.225,0,0,1-.415,2.011,17.7,17.7,0,0,1-.642,1.938,12.822,12.822,0,0,1-4.581,5.959,19.862,19.862,0,0,1-9.794,2.954q-.327.031-.653.031l-7.068-.207H65.4c-.342.01-.695.031-1.037.062a14.318,14.318,0,0,0-5.358,1.368c-3.731,1.845-5.814,7.057-3.917,10.747a5.992,5.992,0,0,0,1.7,2.052c.207.166.415.321.643.476.352.239.715.466,1.088.7.207.124.425.259.632.394a.527.527,0,0,0,.415.062,32.285,32.285,0,0,1,7.586-1.016c1.565-.041,3.347-.02,5.348.124a.518.518,0,0,1,.259.954c-2.86,1.762-8.83,6.457-8.042,14.478a.518.518,0,0,1-.86.445,18.735,18.735,0,0,1-2.28-2.539A20.262,20.262,0,0,1,58,94.412c-.145-.021-.259-.041-.352-.052-3.524-.5-7.265-1.005-10.426-2.757a11.543,11.543,0,0,1-1.43-.912,15.6,15.6,0,0,1-4.726-5.949C37.952,78,40.242,69.674,43.6,63.549a25.983,25.983,0,0,1,3.555-4.985,23.942,23.942,0,0,1,16.706-7.731c.518-.02,1.026-.041,1.534-.052h.031c16.561.477,22.4,8.011,23.225,9.214a.528.528,0,0,1,.083.352Zm0,0" transform="translate(-34.843 -44.614)"/><path class="d" d="M204.114,364.483a32.281,32.281,0,0,0-7.586,1.016.527.527,0,0,1-.415-.062c-.207-.135-.425-.269-.632-.394A41.361,41.361,0,0,1,204.114,364.483Zm0,0" transform="translate(-171.8 -320.188)"/><path class="d" d="M251.752,242.648c-.933.062-1.9.041-2.86.01l-5.286-.156c.342-.031.695-.052,1.037-.062h.041Zm0,0" transform="translate(-214.08 -212.997)"/><path class="d" d="M252.478,214.339c.025,1.711-.478,7.063-7.059,12.022a.518.518,0,0,1-.829-.538c.629-2.369,1.467-7.151-.861-10.288a.518.518,0,0,1,.352-.822l7.817-.869a.519.519,0,0,1,.579.494Zm0,0" transform="translate(-214.099 -187.87)"/><g transform="translate(1.963 1.129)"><path class="e" d="M363.036,95.947a2.073,2.073,0,1,1-2.073-2.073A2.073,2.073,0,0,1,363.036,95.947Zm0,0" transform="translate(-317.327 -83.603)"/><path class="e" d="M361.639,95.588a1.036,1.036,0,0,1-1.979.425,2.1,2.1,0,0,1,1.368-1.368A1.036,1.036,0,0,1,361.639,95.588Zm0,0" transform="translate(-318.003 -84.279)"/><path class="e" d="M25.024,24.6a25.97,25.97,0,0,0-1.568,2.5C20.1,33.23,17.808,41.552,20.917,48.3a16.57,16.57,0,0,0,2.238,3.54l-.165-.14s-.848,4.241.525,6.584a.518.518,0,0,0,.889-.012,13.09,13.09,0,0,1,1.542-2.141A15.245,15.245,0,0,1,26.1,51.7l.165.14a16.569,16.569,0,0,1-2.237-3.54c-3.109-6.747-.819-15.069,2.539-21.193a25.964,25.964,0,0,1,1.568-2.5,30.176,30.176,0,0,0-8.2-14.413.5.5,0,0,1-.05-.659c-.851-.085-1.734-.164-2.666-.229a.518.518,0,0,0-.4.889,30.178,30.178,0,0,1,8.2,14.413Zm0,0" transform="translate(-16.662 -9.299)"/><path class="e" d="M210.173,51.761l-.161.121a24.841,24.841,0,0,1,6.38-1.158c.466-.019.923-.035,1.382-.046-.943-.024-1.913-.03-2.926,0h-.031c-.508.01-1.016.031-1.534.052a25.244,25.244,0,0,0-3.614.459,3.328,3.328,0,0,1,.5.572Zm0,0" transform="translate(-186.228 -45.635)"/><path class="e" d="M32.671,173.935A18.272,18.272,0,0,1,31.116,167a25.581,25.581,0,0,1,.837-6.951,35.962,35.962,0,0,1,3.286-8.24l1.818,1a33.859,33.859,0,0,0-3.094,7.754,23.538,23.538,0,0,0-.773,6.381,16.171,16.171,0,0,0,1.362,6.125Zm0,0" transform="translate(-29.358 -134.501)"/></g><path class="f" d="M369.5,103.446a1.036,1.036,0,1,1-1.037-1.036A1.036,1.036,0,0,1,369.5,103.446Zm0,0" transform="translate(-322.862 -89.972)"/><path class="f" d="M31.9,257.3a.658.658,0,0,0,.185.062,1.45,1.45,0,0,0,.207.019,1.141,1.141,0,0,0,.739-.292,1,1,0,0,0,.222-.323,1.049,1.049,0,0,0-.157-1.1,1.112,1.112,0,0,0-.324-.239,1.012,1.012,0,0,0-1.14.124,1.057,1.057,0,0,0-.069,1.519l.155.129A.766.766,0,0,0,31.9,257.3Zm0,0" transform="translate(-27.534 -224.306)"/><path class="f" d="M9.7,16.243c-.483.711-.941,1.44-1.354,2.193a35.951,35.951,0,0,0-3.289,8.24L4.8,27.719a1.037,1.037,0,0,0,2.026.439l.235-.971a33.863,33.863,0,0,1,3.1-7.754c.371-.676.782-1.329,1.214-1.969a1.024,1.024,0,0,0,.5-.725,25.2,25.2,0,0,1,1.691-2.086,23.029,23.029,0,0,1,16-7.4c18.827-.9,25.7,7.008,26.859,8.564q-.046.391-.1.78c-.087.556-.217,1.158-.375,1.774a14.584,14.584,0,0,0-4.667-.755,1.036,1.036,0,0,0,0,2.073,12.482,12.482,0,0,1,4.024.655,11.787,11.787,0,0,1-4.187,5.466c-2.28,1.572-5.235,2.454-9.29,2.774-.714.058-1.437.071-2.109.065a9.7,9.7,0,0,0,.151-2.89,1.036,1.036,0,0,0-2.052.295c.009.059.683,5.4-5.477,10.682.589-3.012.835-7.6-2.092-10.525a1.036,1.036,0,0,0-1.465,1.465,5.417,5.417,0,0,1,.681.851A15.031,15.031,0,0,0,24.2,29.945a9.938,9.938,0,0,0-5.162,7.69,8.27,8.27,0,0,0,.207,2.922,8.263,8.263,0,0,1-2.618-3.532c-.775-2.187-.324-4.7,1.338-7.472,5.8-9.678,18.593-8.838,18.722-8.824a1.039,1.039,0,0,0,.158-2.073c-.578-.041-14.186-.962-20.659,9.827-2,3.328-2.506,6.433-1.514,9.232,1.543,4.353,6.193,6.376,7.082,6.727.017.014.031.03.048.044a20.029,20.029,0,0,0,1.751,1.187c.292.184.585.368.877.561.014.009.029.012.043.021a.934.934,0,0,0,.1.048,1,1,0,0,0,.241.078.965.965,0,0,0,.111.017c.025,0,.048.01.073.01a1.044,1.044,0,0,0,.276-.04h.016a35.717,35.717,0,0,1,11.3-1C33.565,47.569,29.2,51.9,29.264,58.57a19.107,19.107,0,0,1-4.6-8.988c0-.009-.007-.015-.009-.023q-.075-.188-.168-.368c-.093-.094-.191-.185-.291-.271a3.918,3.918,0,0,0-.381-.142c-.006,0-.01-.005-.018-.007l-.143-.021c-.093-.015-.173-.027-.207-.03l-.158-.023c-3.42-.483-6.964-.982-9.92-2.62a10.352,10.352,0,0,1-1.307-.829,14.659,14.659,0,0,1-4.4-5.555A16.6,16.6,0,0,1,6.525,36a1.037,1.037,0,0,0-2.044.348,18.689,18.689,0,0,0,1.291,4.214,17.72,17.72,0,0,0,1.918,3.2c-.23,1.439-.69,5.662,1.4,7.75a1.036,1.036,0,0,0,.734.307,1.017,1.017,0,0,0,.166-.013,1.037,1.037,0,0,0,.762-.559,11.47,11.47,0,0,1,2.222-3.05,31.477,31.477,0,0,0,9.837,2.527A20,20,0,0,0,29.965,62a1.037,1.037,0,0,0,1.6-1.037c-1.9-10.455,8.3-15.26,8.739-15.457a1.036,1.036,0,0,0-.326-1.969,42.593,42.593,0,0,0-14.805.718c-.173-.111-.345-.223-.519-.333a18.162,18.162,0,0,1-1.569-1.066,5.476,5.476,0,0,1-1.984-5.01A7.8,7.8,0,0,1,25.128,31.8a13.651,13.651,0,0,1,5.2-1.262c.966,3.766-.725,8.42-.746,8.481a1.036,1.036,0,0,0,1.546,1.225,21.35,21.35,0,0,0,6.826-6.934c2.165,1.1,2.985,4.219,2.994,4.249a1.034,1.034,0,0,0,1.736.483c2.034-2.034,1.651-6.088,1.417-7.626a18.618,18.618,0,0,0,8.193-2.9c3.235-2.237,5.335-5.907,6.072-10.6q.1-.633.163-1.265a1.038,1.038,0,0,0-.143-.64c-.267-.442-6.8-10.885-28.919-9.827a25.856,25.856,0,0,0-5.762.933C22.265,4.586,17.211.87,1.59,0A1.051,1.051,0,0,0,.564.667,1.036,1.036,0,0,0,.886,1.846,29.158,29.158,0,0,1,9.7,16.243Zm.146,32.466a9.624,9.624,0,0,1-.267-2.846A14.5,14.5,0,0,0,10.822,46.9c.1.074.2.139.3.207a11.98,11.98,0,0,0-1.28,1.6Zm32.2-13.933a7.67,7.67,0,0,0-3.168-3.316c.1-.251.2-.5.286-.737q.376.008.782.008c.654,0,1.347-.019,2.048-.074h.047a13.1,13.1,0,0,1,0,4.119ZM21.4,6.878a24.853,24.853,0,0,0-9.362,6.376c-.267.292-.519.6-.771.9A31.286,31.286,0,0,0,4.33,2.272C15,3.188,19.608,5.554,21.4,6.878Zm0,0" transform="translate(-0.496 0.001)"/><path class="f" d="M331.858,149.706a1.036,1.036,0,0,0-1.4.435,4.954,4.954,0,0,0,.226,5.515,6.444,6.444,0,0,0,2.048,1.824,1.036,1.036,0,0,0,.971-1.831,3.242,3.242,0,0,1-1.411-4.537,1.036,1.036,0,0,0-.434-1.405Zm0,0" transform="translate(-289.742 -131.42)"/><path class="f" d="M363.288,145.547a6.443,6.443,0,0,0,2.049,1.824,1.018,1.018,0,0,0,.48.12,1.036,1.036,0,0,0,.491-1.951A3.239,3.239,0,0,1,364.9,141a1.037,1.037,0,1,0-1.834-.967A4.954,4.954,0,0,0,363.288,145.547Zm0,0" transform="translate(-318.387 -122.538)"/></svg>