<svg xmlns="http://www.w3.org/2000/svg" width="53" height="69.58" viewBox="0 0 53 69.58"><defs><style>.a{fill:#e7e7f2;}.b{fill:#cecee6;}.c{fill:#979fef;}.d{fill:#6b77e8;}.e{fill:#615ad3;}.f{fill:#725d57;}.g{fill:#53433f;}.h{fill:#adadcc;}.i{fill:#f2f2f2;}</style></defs><path class="a" d="M2067.708,1180.79l-10.274,4.077-15.492-4.689-11.416-3.465-10.926-4.077a26.741,26.741,0,0,1,8.072-8.073V1146h28.539v18.563a26.485,26.485,0,0,1,11.5,16.226Z" transform="translate(-2015.442 -1135.808)"/><path class="b" d="M2209.766,1180.79l-10.274,4.077L2184,1180.178V1146h14.269v18.563A26.485,26.485,0,0,1,2209.766,1180.79Z" transform="translate(-2157.5 -1135.808)"/><path class="c" d="M2042,1356.269a26.724,26.724,0,0,1-6.768,17.789,2.041,2.041,0,0,1-1.549.693h-36.367a1.957,1.957,0,0,1-1.508-.693,26.562,26.562,0,0,1-6.808-17.789,26.142,26.142,0,0,1,2.038-10.192,27.68,27.68,0,0,1,2.12-4.077h10.926a25.644,25.644,0,0,1,11.415,2.65,24.168,24.168,0,0,1,3.18,1.753,22.1,22.1,0,0,0,12.312,3.751h10.274a26.534,26.534,0,0,1,.652,4.077c.041.652.082,1.345.082,2.038Z" transform="translate(-1989 -1305.172)"/><path class="d" d="M2210.5,1373.118a26.724,26.724,0,0,1-6.768,17.789,2.041,2.041,0,0,1-1.549.693H2184v-30.1a24.176,24.176,0,0,1,3.18,1.753,22.1,22.1,0,0,0,12.312,3.751h10.274a26.506,26.506,0,0,1,.652,4.077c.041.652.082,1.345.082,2.038Z" transform="translate(-2157.5 -1322.021)"/><path class="d" d="M2055.115,1414.231a6.115,6.115,0,1,1,6.116-6.115A6.122,6.122,0,0,1,2055.115,1414.231Z" transform="translate(-2040.846 -1357.018)"/><circle class="e" cx="2.038" cy="2.038" r="2.038" transform="translate(36.692 57.213)"/><circle class="e" cx="2.038" cy="2.038" r="2.038" transform="translate(28.538 49.059)"/><path class="d" d="M2173.077,1494.038a2.038,2.038,0,1,1-2.038-2.038A2.019,2.019,0,0,1,2173.077,1494.038Z" transform="translate(-2144.539 -1434.787)"/><path class="f" d="M2129.377,1073.528l-1.875,7.665h-16.471l-1.875-7.665a1.942,1.942,0,0,1,.367-1.753,2.01,2.01,0,0,1,1.59-.775h16.308a2.009,2.009,0,0,1,1.59.775,1.94,1.94,0,0,1,.367,1.753Z" transform="translate(-2092.766 -1071)"/><path class="g" d="M2192.236,1081.192H2184V1071h8.154a2.009,2.009,0,0,1,1.59.775,1.941,1.941,0,0,1,.367,1.753Z" transform="translate(-2157.5 -1071)"/><path class="e" d="M2186.038,1494.038a2.019,2.019,0,0,1-2.038,2.038V1492A2.018,2.018,0,0,1,2186.038,1494.038Z" transform="translate(-2157.5 -1434.787)"/><path class="b" d="M2139.87,1146l-2.2,8.643a2.009,2.009,0,0,1-1.957,1.549h-8.154a2.01,2.01,0,0,1-1.957-1.549l-2.2-8.643Z" transform="translate(-2105.135 -1135.808)"/><path class="h" d="M2192.236,1146l-2.2,8.643a2.009,2.009,0,0,1-1.957,1.549H2184V1146Z" transform="translate(-2157.501 -1135.808)"/><path class="i" d="M2085.692,1133.038a2.019,2.019,0,0,1-2.039,2.038h-32.615a2.038,2.038,0,1,1,0-4.077h32.615A2.019,2.019,0,0,1,2085.692,1133.038Z" transform="translate(-2040.846 -1122.846)"/><path class="a" d="M2202.346,1133.038a2.019,2.019,0,0,1-2.039,2.038H2184V1131h16.308A2.019,2.019,0,0,1,2202.346,1133.038Z" transform="translate(-2157.5 -1122.846)"/></svg>