<svg xmlns="http://www.w3.org/2000/svg" xmlns:xlink="http://www.w3.org/1999/xlink" width="79.676" height="79.712" viewBox="0 0 79.676 79.712"><defs><style>.a{fill:#e79200;}.b{clip-path:url(#a);}.c{fill:#cf6800;}.d{fill:#ffbc00;}.e{fill:#fff;}</style><clipPath id="a"><path class="a" d="M2011.44-215.132l23.44,2.116a4.558,4.558,0,0,0,3.812-2.472l8.524-19.029a4.556,4.556,0,0,1,8.609,1.928l.614,18.715a4.557,4.557,0,0,0,3.962,4.368l22.433,2.945a4.556,4.556,0,0,1,.4,8.964l-17,3.8a4.556,4.556,0,0,0-3.312,5.933l8.458,24.5a4.556,4.556,0,0,1-7.873,4.323l-15.081-18.973a4.556,4.556,0,0,0-6.85-.324l-15.371,15.975a4.556,4.556,0,0,1-7.493-4.9l9.258-22.7a4.557,4.557,0,0,0-2.18-5.821l-16.14-10.727A4.556,4.556,0,0,1,2011.44-215.132Z" transform="translate(-2007.121 237)"/></clipPath></defs><g transform="translate(0 0)"><g transform="translate(0 0)"><path class="a" d="M2011.44-215.132l23.44,2.116a4.558,4.558,0,0,0,3.812-2.472l8.524-19.029a4.556,4.556,0,0,1,8.609,1.928l.614,18.715a4.557,4.557,0,0,0,3.962,4.368l22.433,2.945a4.556,4.556,0,0,1,.4,8.964l-17,3.8a4.556,4.556,0,0,0-3.312,5.933l8.458,24.5a4.556,4.556,0,0,1-7.873,4.323l-15.081-18.973a4.556,4.556,0,0,0-6.85-.324l-15.371,15.975a4.556,4.556,0,0,1-7.493-4.9l9.258-22.7a4.557,4.557,0,0,0-2.18-5.821l-16.14-10.727A4.556,4.556,0,0,1,2011.44-215.132Z" transform="translate(-2007.121 237)"/><g class="b"><path class="c" d="M1999.634-167.532,1969.919-127l-40.27-14.837,21.884-50.1,44.536,15.354C1999.552-175.068,2002.342-171.562,1999.634-167.532Z" transform="translate(-1964.527 212.224)"/><path class="d" d="M2132.779-249.986l-30.283,4.6-3.06,30.1a32.011,32.011,0,0,0,2.873,17.015l19,36.163,26.249-2.813Z" transform="translate(-2057.78 244.14)"/></g></g><path class="e" d="M2072.332-169l6.71,1.459a1.139,1.139,0,0,0,1.324-.758l2.048-6.251a1.139,1.139,0,0,1,2.222.333l.13,6.863a1.138,1.138,0,0,0,1.2,1.116l5.413-.3a1.139,1.139,0,0,1,.411,2.222l-5.463,1.756a1.139,1.139,0,0,0-.682,1.569l2.576,5.483a1.1,1.1,0,0,1-1.837,1.171l-3.952-4.739a1.139,1.139,0,0,0-1.662-.094l-3.9,3.73a1.139,1.139,0,0,1-1.77-1.4l2.7-4.594a1.139,1.139,0,0,0-.352-1.525l-5.989-3.978A1.139,1.139,0,0,1,2072.332-169Z" transform="translate(-2042.212 203.094)"/><path class="e" d="M2080.947-172.038a2.1,2.1,0,0,1,1.09,2.767,2.1,2.1,0,0,1-2.767,1.089,2.1,2.1,0,0,1-1.09-2.767A2.1,2.1,0,0,1,2080.947-172.038Z" transform="translate(-2046.093 201.38)"/><path class="e" d="M2100.051-185.46a1.314,1.314,0,0,1,.681,1.73,1.313,1.313,0,0,1-1.729.681,1.314,1.314,0,0,1-.681-1.729A1.314,1.314,0,0,1,2100.051-185.46Z" transform="translate(-2057.203 208.723)"/><path class="e" d="M2071.615-145a1.446,1.446,0,0,1,.749,1.9,1.446,1.446,0,0,1-1.9.749,1.446,1.446,0,0,1-.75-1.9A1.446,1.446,0,0,1,2071.615-145Z" transform="translate(-2041.468 186.485)"/><path class="e" d="M2096.59-128.9a1.184,1.184,0,0,1,.613,1.557,1.184,1.184,0,0,1-1.557.613,1.182,1.182,0,0,1-.613-1.556A1.183,1.183,0,0,1,2096.59-128.9Z" transform="translate(-2055.401 177.62)"/><path class="e" d="M2114.562-145.257a1.71,1.71,0,0,1,.885,2.248,1.709,1.709,0,0,1-2.248.886,1.709,1.709,0,0,1-.886-2.248A1.709,1.709,0,0,1,2114.562-145.257Z" transform="translate(-2064.877 186.638)"/><path class="e" d="M2117.6-166.238a1.184,1.184,0,0,1,.613,1.556,1.184,1.184,0,0,1-1.557.613,1.183,1.183,0,0,1-.613-1.556A1.183,1.183,0,0,1,2117.6-166.238Z" transform="translate(-2066.954 198.149)"/><path class="e" d="M2107.9-166.266a.855.855,0,0,1,.443,1.125.854.854,0,0,1-1.124.443.854.854,0,0,1-.443-1.124A.854.854,0,0,1,2107.9-166.266Z" transform="translate(-2061.871 198.149)"/><path class="e" d="M2131.261-159.176a1.446,1.446,0,0,1,.749,1.9,1.446,1.446,0,0,1-1.9.749,1.445,1.445,0,0,1-.749-1.9A1.446,1.446,0,0,1,2131.261-159.176Z" transform="translate(-2074.261 194.278)"/><path class="e" d="M2074.2-126.051a1.446,1.446,0,0,1,.75,1.9,1.446,1.446,0,0,1-1.9.749,1.445,1.445,0,0,1-.749-1.9A1.445,1.445,0,0,1,2074.2-126.051Z" transform="translate(-2042.888 176.066)"/><path class="e" d="M2112.064-124.547a1.446,1.446,0,0,1,.749,1.9,1.446,1.446,0,0,1-1.9.75,1.446,1.446,0,0,1-.75-1.9A1.446,1.446,0,0,1,2112.064-124.547Z" transform="translate(-2063.706 175.239)"/><path class="e" d="M2121.123-111.061a.912.912,0,0,1,.472,1.2.913.913,0,0,1-1.2.473.913.913,0,0,1-.473-1.2A.912.912,0,0,1,2121.123-111.061Z" transform="translate(-2069.098 167.8)"/><path class="e" d="M2058.929-167.072a1.446,1.446,0,0,1,.75,1.9,1.447,1.447,0,0,1-1.9.749,1.446,1.446,0,0,1-.749-1.9A1.446,1.446,0,0,1,2058.929-167.072Z" transform="translate(-2034.493 198.62)"/><path class="e" d="M2065.59-114.088a1.029,1.029,0,0,1,.533,1.353,1.027,1.027,0,0,1-1.353.532,1.027,1.027,0,0,1-.532-1.352A1.028,1.028,0,0,1,2065.59-114.088Z" transform="translate(-2038.477 169.47)"/><path class="e" d="M2102.833-197.534a1.028,1.028,0,0,1,.533,1.352,1.028,1.028,0,0,1-1.352.533,1.028,1.028,0,0,1-.533-1.352A1.028,1.028,0,0,1,2102.833-197.534Z" transform="translate(-2058.952 215.349)"/><path class="e" d="M2047.049-170.277a1.027,1.027,0,0,1,.532,1.352,1.028,1.028,0,0,1-1.353.533,1.027,1.027,0,0,1-.532-1.352A1.028,1.028,0,0,1,2047.049-170.277Z" transform="translate(-2028.282 200.363)"/><path class="e" d="M2144.107-159.211a1.027,1.027,0,0,1,.532,1.352,1.027,1.027,0,0,1-1.352.533,1.027,1.027,0,0,1-.532-1.352A1.028,1.028,0,0,1,2144.107-159.211Z" transform="translate(-2081.645 194.279)"/></g></svg>